<?xml version="1.0" encoding="UTF-8" standalone="no"?>
<svg
   width="2365.4707"
   zoomAndPan="magnify"
   viewBox="0 0 1774.103 255.46641"
   height="340.62189"
   preserveAspectRatio="xMidYMid"
   version="1.0"
   id="svg1784"
   xmlns="http://www.w3.org/2000/svg"
   xmlns:svg="http://www.w3.org/2000/svg">
  <defs
     id="defs1650">
    <rect
       x="-227.41522"
       y="251.5561"
       width="851.0282"
       height="439.44545"
       id="rect2043" />
    <rect
       x="-185.6834"
       y="280.44823"
       width="1021.9149"
       height="380.9485"
       id="rect2037" />
    <g
       id="g1633" />
    <clipPath
       id="6a59e1152d">
      <path
         d="M 0,3.023438 H 59 V 147.02344 H 0 Z m 0,0"
         clip-rule="nonzero"
         id="path1635" />
    </clipPath>
    <clipPath
       id="ebde7b7d15">
      <path
         d="m 123,3.023438 h 60 V 147.02344 h -60 z m 0,0"
         clip-rule="nonzero"
         id="path1638" />
    </clipPath>
    <clipPath
       id="cc1085b20b">
      <path
         d="m 185,76 h 59.5 v 71.02344 H 185 Z m 0,0"
         clip-rule="nonzero"
         id="path1641" />
    </clipPath>
    <clipPath
       id="1886b5401a">
      <path
         d="m 61,3.023438 h 60 V 147.02344 H 61 Z m 0,0"
         clip-rule="nonzero"
         id="path1644" />
    </clipPath>
    <clipPath
       id="8b1d0fa365">
      <path
         d="m 185,3.023438 h 59.5 V 74 H 185 Z m 0,0"
         clip-rule="nonzero"
         id="path1647" />
    </clipPath>
  </defs>
  <path
     stroke-linecap="butt"
     fill="none"
     stroke-linejoin="miter"
     d="M 370.18403,253.22799 369.52147,12.390561"
     stroke="#ffffff"
     stroke-width="19.8531"
     stroke-opacity="1"
     stroke-miterlimit="4"
     id="path1652" />
  <g
     clip-path="url(#6a59e1152d)"
     id="g1656"
     transform="matrix(1.3502393,0,0,1.6726203,0,7.3079662)">
    <path
       fill="#ffffff"
       d="m 0,3.023438 58.886719,44.90625 V 147.02344 H 0.0273438 Z m 0,0"
       fill-opacity="1"
       fill-rule="nonzero"
       id="path1654" />
  </g>
  <g
     clip-path="url(#ebde7b7d15)"
     id="g1660"
     transform="matrix(0.99160131,0,0,1.6726203,45.129079,7.3079662)">
    <path
       fill="#ffffff"
       d="M 123.74219,3.175781 V 147.02344 H 182.625 V 3.023438 Z m 0,0"
       fill-opacity="1"
       fill-rule="nonzero"
       id="path1658" />
  </g>
  <g
     clip-path="url(#1886b5401a)"
     id="g1668"
     transform="matrix(1.3502393,0,0,1.6726203,0.37521581,7.3079662)">
    <path
       fill="#ffffff"
       d="m 120.75391,3.023438 -58.882816,44.90625 v 99.093752 h 58.859376 z m 0,0"
       fill-opacity="1"
       fill-rule="nonzero"
       id="path1666" />
  </g>
  <g
     clip-path="url(#8b1d0fa365)"
     id="g1672"
     transform="matrix(1.698239,0,0,-1.6960609,-84.642184,136.20606)">
    <path
       fill="#ffffff"
       d="m 185.61328,73.031253 0.0391,-69.964844 35.91154,-1.319e-4 c 0,0 39.6744,54.5587249 -5.54044,69.9884119 z"
       fill-opacity="1"
       fill-rule="nonzero"
       id="path1670" />
  </g>
  <g
     fill="#ffffff"
     fill-opacity="1"
     id="g1680"
     transform="matrix(2.1877306,0,0,2.7100697,-185.86742,-74.82432)">
    <g
       transform="translate(270.91763,121.04724)"
       id="g1678">
      <g
         id="g1676">
        <path
           d="m 3.9375,0 v -88.875 h 27.109375 l 7.4375,54.21875 L 45.9375,-88.875 H 73.25 V 0 H 57.015625 V -64.046875 L 46.765625,0 h -15.9375 L 19.96875,-64.046875 V 0 Z m 0,0"
           id="path1674" />
      </g>
    </g>
  </g>
  <g
     fill="#ffffff"
     fill-opacity="1"
     id="g1688"
     transform="matrix(2.1877306,0,0,2.7100697,-185.86742,-74.82432)">
    <g
       transform="translate(348.0936,121.04724)"
       id="g1686">
      <g
         id="g1684">
        <path
           d="m 18.203125,0.828125 c -5.65625,0 -9.539063,-1.6875 -11.640625,-5.0625 C 4.46875,-7.617188 3.421875,-12.65625 3.421875,-19.34375 V -75.734375 H 21.625 v 52.765625 c 0,0.480469 0,1.773438 0,3.875 0,2.105469 0.328125,3.589844 0.984375,4.453125 0.65625,0.867187 1.671875,1.296875 3.046875,1.296875 1.863281,0 3.035156,-0.773438 3.515625,-2.328125 0.488281,-1.550781 0.734375,-3.773437 0.734375,-6.671875 v -0.625 L 30,-75.734375 H 48.015625 V 0 H 29.90625 v -8.078125 c -1.242188,3.179687 -2.6875,5.460937 -4.34375,6.84375 -1.65625,1.375 -4.109375,2.0625 -7.359375,2.0625 z m 0,0"
           id="path1682" />
      </g>
    </g>
  </g>
  <g
     fill="#ffffff"
     fill-opacity="1"
     id="g1696"
     transform="matrix(2.1877306,0,0,2.7100697,-185.86742,-74.82432)">
    <g
       transform="translate(399.71667,121.04724)"
       id="g1694">
      <g
         id="g1692">
        <path
           d="m 3.625,-75.734375 h 18.109375 v 8.375 c 0.894531,-2.96875 2.460937,-5.257813 4.703125,-6.875 2.238281,-1.625 5.015625,-2.4375 8.328125,-2.4375 V -61.5625 c -2.554687,0 -5.367187,0.367188 -8.4375,1.09375 -3.0625,0.71875 -4.59375,1.5625 -4.59375,2.53125 V 0 H 3.625 Z m 0,0"
           id="path1690" />
      </g>
    </g>
  </g>
  <g
     fill="#ffffff"
     fill-opacity="1"
     id="g1704"
     transform="matrix(2.1877306,0,0,2.7100697,-185.86742,-74.82432)">
    <g
       transform="translate(435.30451,121.04724)"
       id="g1702">
      <g
         id="g1700">
        <path
           d="m 3.515625,-80.8125 v -12.625 H 21.625 v 12.625 z m 0,80.8125 V -75.734375 H 21.625 V 0 Z m 0,0"
           id="path1698" />
      </g>
    </g>
  </g>
  <g
     fill="#ffffff"
     fill-opacity="1"
     id="g1712"
     transform="matrix(2.1877306,0,0,2.7100697,-185.86742,-74.82432)">
    <g
       transform="translate(460.4436,121.04724)"
       id="g1710">
      <g
         id="g1708">
        <path
           d="M 3.625,0 V -89.390625 H 22.03125 V 0 Z m 0,0"
           id="path1706" />
      </g>
    </g>
  </g>
  <g
     fill="#ffffff"
     fill-opacity="1"
     id="g1720"
     transform="matrix(2.1877306,0,0,2.7100697,-185.86742,-74.82432)">
    <g
       transform="translate(486.09995,121.04724)"
       id="g1718">
      <g
         id="g1716">
        <path
           d="M 25.65625,0.828125 C 10.550781,0.828125 3,-7 3,-22.65625 v -30.421875 c 0,-7.175781 2.015625,-12.882813 6.046875,-17.125 4.039063,-4.238281 9.578125,-6.359375 16.609375,-6.359375 7.039062,0 12.578125,2.121094 16.609375,6.359375 4.03125,4.242187 6.046875,9.949219 6.046875,17.125 V -22.65625 C 48.3125,-7 40.757812,0.828125 25.65625,0.828125 Z m 0,-13.96875 c 1.445312,0 2.515625,-0.515625 3.203125,-1.546875 0.695313,-1.039062 1.046875,-2.457031 1.046875,-4.25 v -37.03125 c 0,-4.414062 -1.417969,-6.625 -4.25,-6.625 -2.824219,0 -4.234375,2.210938 -4.234375,6.625 v 37.03125 c 0,1.792969 0.34375,3.210938 1.03125,4.25 0.6875,1.03125 1.753906,1.546875 3.203125,1.546875 z m 0,0"
           id="path1714" />
      </g>
    </g>
  </g>
  <g
     fill="#ffffff"
     fill-opacity="1"
     id="g1726"
     transform="matrix(1.0067672,0,0,0.99999991,-23.680045,-54.77912)">
    <g
       transform="translate(537.51612,121.04724)"
       id="g1724">
      <g
         id="g1722" />
    </g>
  </g>
  <g
     fill="#ffffff"
     fill-opacity="1"
     id="g1734"
     transform="matrix(2.1877306,0,0,2.7100697,-185.86742,-74.82432)">
    <g
       transform="translate(561.72413,121.04724)"
       id="g1732">
      <g
         id="g1730">
        <path
           d="m 3.9375,-88.875 h 24.109375 c 6.476563,0 11.179687,1.589844 14.109375,4.765625 2.9375,3.167969 4.40625,8.339844 4.40625,15.515625 v 3.921875 c 0,8.492187 -3.039062,13.5625 -9.109375,15.21875 3.726563,0.960937 6.347656,3.199219 7.859375,6.71875 1.519531,3.523437 2.28125,8.179687 2.28125,13.96875 0,9.449219 -1.417969,16.605469 -4.25,21.46875 C 40.519531,-2.429688 35.421875,0 28.046875,0 H 3.9375 Z m 21,33.421875 c 1.519531,0 2.554688,-0.566406 3.109375,-1.703125 0.550781,-1.144531 0.828125,-2.753906 0.828125,-4.828125 V -70.875 c 0,-2.894531 -1.277344,-4.34375 -3.828125,-4.34375 H 21.3125 v 19.765625 z M 23.078125,-15.625 C 27.691406,-15.625 30,-17.832031 30,-22.25 v -11.0625 c 0,-2.695312 -0.398438,-4.734375 -1.1875,-6.109375 -0.792969,-1.375 -2.1875,-2.0625 -4.1875,-2.0625 h -3.3125 v 25.75 z m 0,0"
           id="path1728" />
      </g>
    </g>
  </g>
  <g
     fill="#ffffff"
     fill-opacity="1"
     id="g1742"
     transform="matrix(2.1877306,0,0,2.7100697,-185.86742,-74.82432)">
    <g
       transform="translate(611.27813,121.04724)"
       id="g1740">
      <g
         id="g1738">
        <path
           d="m 17.375,0.828125 c -5.855469,0 -9.871094,-1.945313 -12.046875,-5.84375 -2.179687,-3.894531 -3.265625,-9.46875 -3.265625,-16.71875 0,-5.925781 0.773438,-10.472656 2.328125,-13.640625 1.550781,-3.175781 3.707031,-5.503906 6.46875,-6.984375 2.757813,-1.488281 6.96875,-3.128906 12.625,-4.921875 l 4.96875,-1.65625 v -7.765625 c 0,-2 -0.398437,-3.53125 -1.1875,-4.59375 -0.792969,-1.070313 -1.742187,-1.609375 -2.84375,-1.609375 -0.96875,0 -1.820313,0.449219 -2.546875,1.34375 -0.71875,0.898438 -1.078125,2.105469 -1.078125,3.625 v 4.546875 H 3.203125 V -55.875 c 0,-7.445312 1.738281,-12.753906 5.21875,-15.921875 3.488281,-3.175781 9.164063,-4.765625 17.03125,-4.765625 6.28125,0 11.382813,1.640625 15.3125,4.921875 3.9375,3.273437 5.90625,7.90625 5.90625,13.90625 V 0 H 28.65625 v -9 c -0.898438,3.105469 -2.328125,5.523438 -4.296875,7.25 C 22.398438,-0.03125 20.070312,0.828125 17.375,0.828125 Z M 24.515625,-13.25 c 1.382813,0 2.367187,-0.566406 2.953125,-1.703125 0.582031,-1.132813 0.875,-2.53125 0.875,-4.1875 V -40.25 c -2.6875,1.03125 -4.671875,2.34375 -5.953125,3.9375 -1.273437,1.585938 -1.90625,3.789062 -1.90625,6.609375 v 9.734375 c 0,4.480469 1.34375,6.71875 4.03125,6.71875 z m 0,0"
           id="path1736" />
      </g>
    </g>
  </g>
  <g
     fill="#ffffff"
     fill-opacity="1"
     id="g1750"
     transform="matrix(2.1877306,0,0,2.7100697,-185.86742,-74.82432)">
    <g
       transform="translate(661.24593,121.04724)"
       id="g1748">
      <g
         id="g1746">
        <path
           d="m 3.625,-75.734375 h 18.109375 v 8.375 c 0.894531,-2.96875 2.460937,-5.257813 4.703125,-6.875 2.238281,-1.625 5.015625,-2.4375 8.328125,-2.4375 V -61.5625 c -2.554687,0 -5.367187,0.367188 -8.4375,1.09375 -3.0625,0.71875 -4.59375,1.5625 -4.59375,2.53125 V 0 H 3.625 Z m 0,0"
           id="path1744" />
      </g>
    </g>
  </g>
  <g
     fill="#ffffff"
     fill-opacity="1"
     id="g1758"
     transform="matrix(2.1877306,0,0,2.7100697,-185.86742,-74.82432)">
    <g
       transform="translate(696.83377,121.04724)"
       id="g1756">
      <g
         id="g1754">
        <path
           d="m 32.90625,0.828125 c -4.96875,0 -8.523438,-2.96875 -10.65625,-8.90625 V 0 H 3.625 V -89.390625 H 22.25 V -72.125 c 2.894531,-2.957031 6.273438,-4.4375 10.140625,-4.4375 5.863281,0 10.070313,1.746094 12.625,5.234375 2.550781,3.480469 3.828125,8.496094 3.828125,15.046875 v 36.515625 c 0,6.210937 -1.3125,11.195313 -3.9375,14.953125 -2.625,3.761719 -6.625,5.640625 -12,5.640625 z M 26.796875,-13.25 c 1.238281,0 2.117187,-0.394531 2.640625,-1.1875 0.519531,-0.789062 0.828125,-1.789062 0.921875,-3 0.101563,-1.207031 0.15625,-3.085938 0.15625,-5.640625 V -54.625 c 0,-2.695312 -0.242187,-4.695312 -0.71875,-6 -0.480469,-1.3125 -1.515625,-1.96875 -3.109375,-1.96875 -1.71875,0 -2.890625,0.65625 -3.515625,1.96875 -0.617187,1.304688 -0.921875,3.230469 -0.921875,5.78125 v 31.765625 c 0,3.3125 0.273438,5.78125 0.828125,7.40625 0.550781,1.617187 1.789063,2.421875 3.71875,2.421875 z m 0,0"
           id="path1752" />
      </g>
    </g>
  </g>
  <g
     fill="#ffffff"
     fill-opacity="1"
     id="g1766"
     transform="matrix(2.1877306,0,0,2.7100697,-185.86742,-74.82432)">
    <g
       transform="translate(748.66376,121.04724)"
       id="g1764">
      <g
         id="g1762">
        <path
           d="M 25.65625,0.828125 C 10.550781,0.828125 3,-7 3,-22.65625 v -30.421875 c 0,-7.175781 2.015625,-12.882813 6.046875,-17.125 4.039063,-4.238281 9.578125,-6.359375 16.609375,-6.359375 7.039062,0 12.578125,2.121094 16.609375,6.359375 4.03125,4.242187 6.046875,9.949219 6.046875,17.125 V -22.65625 C 48.3125,-7 40.757812,0.828125 25.65625,0.828125 Z m 0,-13.96875 c 1.445312,0 2.515625,-0.515625 3.203125,-1.546875 0.695313,-1.039062 1.046875,-2.457031 1.046875,-4.25 v -37.03125 c 0,-4.414062 -1.417969,-6.625 -4.25,-6.625 -2.824219,0 -4.234375,2.210938 -4.234375,6.625 v 37.03125 c 0,1.792969 0.34375,3.210938 1.03125,4.25 0.6875,1.03125 1.753906,1.546875 3.203125,1.546875 z m 0,0"
           id="path1760" />
      </g>
    </g>
  </g>
  <g
     fill="#ffffff"
     fill-opacity="1"
     id="g1774"
     transform="matrix(2.1877306,0,0,2.7100697,-185.86742,-74.82432)">
    <g
       transform="translate(800.07994,121.04724)"
       id="g1772">
      <g
         id="g1770">
        <path
           d="M 24.421875,0.828125 C 9.453125,0.828125 1.96875,-6.757812 1.96875,-21.9375 l 0.09375,-6 h 18.109375 l 0.109375,8.90625 c 0,1.792969 0.34375,3.15625 1.03125,4.09375 0.6875,0.929688 1.828125,1.390625 3.421875,1.390625 2.40625,0 3.609375,-1.96875 3.609375,-5.90625 0,-2.894531 -0.570312,-5.171875 -1.703125,-6.828125 -1.136719,-1.65625 -2.945313,-3.414062 -5.421875,-5.28125 L 11.59375,-39 c -3.3125,-2.5625 -5.695312,-5.203125 -7.140625,-7.921875 -1.449219,-2.726563 -2.171875,-6.570313 -2.171875,-11.53125 0,-3.863281 1.015625,-7.15625 3.046875,-9.875 2.03125,-2.726563 4.734375,-4.78125 8.109375,-6.15625 3.382812,-1.382813 7.148438,-2.078125 11.296875,-2.078125 14.6875,0 22.03125,7.3125 22.03125,21.9375 v 1.4375 h -18.71875 v -2.890625 c 0,-1.789063 -0.296875,-3.320313 -0.890625,-4.59375 -0.585938,-1.28125 -1.5625,-1.921875 -2.9375,-1.921875 -1.25,0 -2.203125,0.367188 -2.859375,1.09375 -0.648437,0.71875 -0.96875,1.699219 -0.96875,2.9375 0,2.761719 1.066406,4.902344 3.203125,6.421875 l 11.171875,8.171875 c 4,2.960938 7.066406,6.183594 9.203125,9.671875 2.144531,3.480469 3.21875,7.875 3.21875,13.1875 0,7.042969 -2.007812,12.460937 -6.015625,16.25 -4,3.792969 -9.585937,5.6875 -16.75,5.6875 z m 0,0"
           id="path1768" />
      </g>
    </g>
  </g>
  <g
     fill="#ffffff"
     fill-opacity="1"
     id="g1782"
     transform="matrix(2.1877306,0,0,2.7100697,-185.86742,-74.82432)">
    <g
       transform="translate(849.22013,121.04724)"
       id="g1780">
      <g
         id="g1778">
        <path
           d="m 17.375,0.828125 c -5.855469,0 -9.871094,-1.945313 -12.046875,-5.84375 -2.179687,-3.894531 -3.265625,-9.46875 -3.265625,-16.71875 0,-5.925781 0.773438,-10.472656 2.328125,-13.640625 1.550781,-3.175781 3.707031,-5.503906 6.46875,-6.984375 2.757813,-1.488281 6.96875,-3.128906 12.625,-4.921875 l 4.96875,-1.65625 v -7.765625 c 0,-2 -0.398437,-3.53125 -1.1875,-4.59375 -0.792969,-1.070313 -1.742187,-1.609375 -2.84375,-1.609375 -0.96875,0 -1.820313,0.449219 -2.546875,1.34375 -0.71875,0.898438 -1.078125,2.105469 -1.078125,3.625 v 4.546875 H 3.203125 V -55.875 c 0,-7.445312 1.738281,-12.753906 5.21875,-15.921875 3.488281,-3.175781 9.164063,-4.765625 17.03125,-4.765625 6.28125,0 11.382813,1.640625 15.3125,4.921875 3.9375,3.273437 5.90625,7.90625 5.90625,13.90625 V 0 H 28.65625 v -9 c -0.898438,3.105469 -2.328125,5.523438 -4.296875,7.25 C 22.398438,-0.03125 20.070312,0.828125 17.375,0.828125 Z M 24.515625,-13.25 c 1.382813,0 2.367187,-0.566406 2.953125,-1.703125 0.582031,-1.132813 0.875,-2.53125 0.875,-4.1875 V -40.25 c -2.6875,1.03125 -4.671875,2.34375 -5.953125,3.9375 -1.273437,1.585938 -1.90625,3.789062 -1.90625,6.609375 v 9.734375 c 0,4.480469 1.34375,6.71875 4.03125,6.71875 z m 0,0"
           id="path1776" />
      </g>
    </g>
  </g>
  <text
     xml:space="preserve"
     transform="scale(0.74999999)"
     id="text2035"
     style="fill:#ffffff;white-space:pre;shape-inside:url(#rect2037)" />
  <text
     xml:space="preserve"
     transform="scale(0.74999999)"
     id="text2041"
     style="fill:#ffffff;white-space:pre;shape-inside:url(#rect2043)" />
  <g
     clip-path="url(#8b1d0fa365)"
     id="g2289"
     transform="matrix(1.698239,0,0,1.6960609,-84.716489,129.28032)">
    <path
       fill="#ffffff"
       d="m 185.61328,73.031253 0.0391,-69.964844 35.91154,-1.319e-4 c 0,0 39.6744,54.5587249 -5.54044,69.9884119 z"
       fill-opacity="1"
       fill-rule="nonzero"
       id="path2287" />
  </g>
</svg>
